<svg width="22" height="22" fill="none" xmlns="http://www.w3.org/2000/svg"><path clip-rule="evenodd" d="M15.28 1h3.27C19.9 1 21 2.1 21 3.47v3.3c0 1.36-1.1 2.46-2.45 2.46h-3.27a2.46 2.46 0 0 1-2.44-2.47V3.47c0-1.36 1.1-2.47 2.44-2.47ZM3.45 1H6.7c1.36 0 2.45 1.1 2.45 2.47v3.3c0 1.36-1.1 2.46-2.45 2.46H3.45A2.46 2.46 0 0 1 1 6.76V3.47C1 2.11 2.1 1 3.45 1ZM3.45 12.77H6.7c1.36 0 2.45 1.1 2.45 2.47v3.29c0 1.36-1.1 2.47-2.45 2.47H3.45A2.46 2.46 0 0 1 1 18.53v-3.3c0-1.36 1.1-2.46 2.45-2.46ZM15.28 12.77h3.27c1.35 0 2.45 1.1 2.45 2.47v3.29c0 1.36-1.1 2.47-2.45 2.47h-3.27a2.46 2.46 0 0 1-2.44-2.47v-3.3c0-1.36 1.1-2.46 2.44-2.46Z" stroke="#facc15" stroke-width="2" stroke-linecap="round" stroke-linejoin="round"/></svg>