<svg width="335" height="299" fill="none" xmlns="http://www.w3.org/2000/svg"><path fill-rule="evenodd" clip-rule="evenodd" d="M150.5.35c-.41.07-1.84.21-3.17.31-1.33.1-3.35.3-4.5.42-1.94.23-2.57.33-4.87.74-.48.1-1.85.32-3.04.5a58.9 58.9 0 0 0-6.5 1.32l-1.75.44c-1.45.36-2.3.55-3 .67-.32.06-1.37.35-2.34.66-1.81.57-3.1.96-4.25 1.28-.36.1-1.3.41-2.08.68-.78.27-1.57.53-1.75.58-1.1.27-2.63.99-2.74 1.28-.16.43-2.62 1.26-3.8 1.26-1.22.01-3.74 1.12-5.4 2.38-.5.4-1.37 1.05-1.9 1.47-1.17.89-1.55 1.08-4.08 2.06a81.5 81.5 0 0 0-6.75 2.92 735.62 735.62 0 0 1-11.36 5.53c-.33.12-.37.2-.22.48.2.37.2.36-1.79 1.48-1.12.62-2.4 1.53-5.54 3.95-.69.53-1.5 1.17-1.8 1.43-.44.38-.6.44-.84.29-.3-.18-5.16 2.89-6.66 4.2-1.07.95-1.24.3-.18-.72 1.32-1.25.5-.79-1.14.66l-2.96 2.55-2 1.7c-.4.35-.86.63-1.04.63-.31 0-1.19.88-7.64 7.66a162.5 162.5 0 0 0-13.4 15.98c-.42.53-1.17 1.61-1.68 2.4-.73 1.16-1 1.44-1.33 1.45-.35.01-.6.33-1.58 1.97-.64 1.07-1.47 2.41-1.84 2.97a63.17 63.17 0 0 0-2.02 3.3c-.2.34-.47.75-.6.9-.14.16-.5.74-.8 1.29-.3.55-.74 1.3-.97 1.66-1.58 2.48-4.9 9.17-5.51 11.09-.07.23-.33.7-.58 1.07-.24.36-.49.84-.54 1.08-.06.24-.24.7-.4 1.01-.16.32-.59 1.49-.96 2.59-.36 1.1-.9 2.63-1.19 3.41-.29.78-.64 1.86-.78 2.4-.32 1.25-1.45 3.52-2.01 4.04a6.68 6.68 0 0 0-1.05 2.19c-.81 2.32-.76 2.17-1.01 3.04a3.8 3.8 0 0 1-.35.9.91.91 0 0 0-.14.5c0 .2-.2.95-.43 1.68a227.94 227.94 0 0 0-1.33 4.34c-.12.37-.26.97-.33 1.33-.06.37-.26 1.23-.44 1.92l-.42 1.58a18.4 18.4 0 0 0-.64 2.33c-.15.74-.35 1.52-.43 1.75a18.9 18.9 0 0 0-.38 1.75c-.14.74-.37 1.86-.52 2.5-.15.64-.34 2.33-.42 3.75-.07 1.42-.26 4.09-.4 5.92-.37 4.54-.56 7.18-.75 10.33-.21 3.46-.22 19.41 0 22a188.64 188.64 0 0 0 1.65 14.34c.1.55.29 1.78.42 2.75.13.96.32 2.08.42 2.5.28 1.13.48 2 .65 2.91.17.85.29 1.36.75 3.23.15.58.39 1.63.53 2.33.24 1.21.46 2.04.74 2.78a75.38 75.38 0 0 0 .91 3c.23.72.42 1.42.42 1.54 0 .21.57 1.94 2.23 6.79.4 1.2 1.07 3 1.48 4 .4 1 .8 2.02.87 2.25.07.23.57 1.4 1.1 2.6.54 1.2.98 2.24.98 2.3 0 .42 5.23 10.8 6.28 12.47.22.34.4.67.4.74 0 .4 5.75 9.6 7.94 12.67a164.4 164.4 0 0 0 4.52 6.1c.43.54.85 1.1.93 1.26.09.15.53.71.99 1.25a49.9 49.9 0 0 1 1.26 1.52c3.62 4.68 11.88 13.21 17.6 18.17l2.09 1.84a62.77 62.77 0 0 0 4.07 3.34c1.3.97 4.85 3.49 5.4 3.82l1.9 1.21c.9.57 1.67 1.04 1.72 1.04.04 0 .73.43 1.53.95s1.87 1.18 2.37 1.47c.5.3 1.32.78 1.8 1.08 1.75 1.1 1.03.32-.87-.95a389.37 389.37 0 0 1-5.53-3.73c-1.04-.69-4.01-2.89-6.87-5.08a64.38 64.38 0 0 1-6.49-6.4 126.45 126.45 0 0 1-3.94-4.96 8.26 8.26 0 0 0-1.24-1.45c-.05.04 0 .17.11.28.22.22.27.8.07.8-.3 0-4.37-4.28-5.07-5.32a34.1 34.1 0 0 0-2.15-2.3c-1.85-1.88-2.11-2.39-1.21-2.39.35 0 .29-.1-.48-.88-.8-.8-2.4-2.73-3.03-3.62a81.56 81.56 0 0 1-2.76-4.18 7.76 7.76 0 0 0-2.52-2.68c-.37-.28-.83-.9-1.22-1.67-.35-.67-.77-1.4-.93-1.63a58.68 58.68 0 0 1-3.43-7c-.12-.34-.32-.59-.47-.59-.15 0-.43-.3-.63-.67a186.8 186.8 0 0 1-6-12.08c-.27-.68-.61-1.5-.76-1.8-.21-.45-.22-.62-.05-.94.19-.34.16-.46-.2-.95-.4-.53-.95-1.62-1.86-3.7-.4-.9-.4-1-.17-1.45.23-.45.22-.55-.1-1.28a48.33 48.33 0 0 1-1.58-3.88c-.42-1.14-.84-2.23-.92-2.41a18.1 18.1 0 0 1-1.04-3.32c.28-.28.59 0 1.04.9.28.55.58 1 .67 1 .2 0 .22-.22.06-.39-.1-.1-.4-.87-.97-2.53a37.5 37.5 0 0 1-.59-1.99 60.21 60.21 0 0 0-2.45-6.84 7.45 7.45 0 0 0-.97-1.25c-.93-1-1.26-1.68-1.9-4-.12-.41-.27-.94-.35-1.17-.12-.4-.35-1.24-.67-2.5-.3-1.15-.51-3.32-.35-3.62.11-.2.06-.77-.17-1.8l-.41-1.91a4.12 4.12 0 0 0-.24-.75 26.2 26.2 0 0 1-.21-3.58c-.03-1.9-.14-3.57-.26-4-1.16-4.19-1.17-20.63-.02-29.09a723.07 723.07 0 0 1 .66-4.7c.09-.62.33-2.83.54-4.9.21-2.09.44-3.84.5-3.91.08-.07.13-.37.13-.67 0-.3.07-.59.15-.64.08-.05.19-.33.24-.63.04-.3.32-1.37.61-2.38.3-1 .63-2.2.75-2.67.22-.84.66-2.22.9-2.83.13-.32 1.25-3.83 1.54-4.83.4-1.36 1.18-3.7 1.33-3.97.19-.34.07-.62-.28-.62-.35 0-.3-.32.24-1.42.26-.55.53-1.18.6-1.41.06-.23.18-.57.26-.75l.76-1.67a157.54 157.54 0 0 1 5.4-11.58c1.7-3.35 4.48-8.15 6.58-11.33 2.2-3.36 5.8-8.05 6.85-8.92.34-.29 1.78-2.6 1.68-2.7-.05-.06-.2 0-.34.1-.16.14-.27.14-.34.02-.13-.2-.21-.06 1.29-2.2 2.87-4.09 3.72-5.08 8.32-9.65A73.28 73.28 0 0 0 48 59.01c0-.17-.1-.14-.34.08-.22.2-.39.25-.5.14-.1-.11.36-.7 1.36-1.74.84-.87 1.9-2.02 2.36-2.57 3.02-3.6 8.96-9.52 10.53-10.48.28-.18.77-.54 1.08-.82.31-.27.8-.6 1.08-.72a17.1 17.1 0 0 0 2.2-1.6c3.3-2.69 5.68-4.48 8.66-6.51a118.83 118.83 0 0 1 7.3-4.67c.74-.49 1.65-1.02 2.02-1.19.37-.17.78-.4.92-.52.25-.2 1.02-.64 4-2.23 1.82-.97 7.93-4.01 8.07-4.01.05 0 .93-.4 1.97-.9a83.21 83.21 0 0 1 6.8-2.78 177.75 177.75 0 0 1 13.16-4.15c1.77-.57 2.99-.89 4.5-1.2a51.7 51.7 0 0 0 3.66-.82c.42-.1.94-.22 1.17-.25.23-.03.72-.13 1.1-.22a61.6 61.6 0 0 1 5.15-.95c.92-.13 2.16-.31 2.75-.41 2.8-.46 6.3-.85 12-1.34 2.98-.26 16.75-.38 17.75-.15.46.1 2.15.21 3.75.25 1.6.04 3.44.14 4.08.23l4.09.52 3.91.51c.55.09 1.87.27 2.92.4 2.58.33 2.97.4 5 .79l2.17.4c.23.03.75.13 1.16.23 1.72.42 4.05.92 5.17 1.1.32.05.8.18 1.06.28.4.15.5.13.64-.1.18-.33.57-.3 2.13.21.5.17 1.22.39 1.59.49 1.04.3 2.46.7 2.91.86l1.25.33c.46.1.99.26 1.17.34.18.08 1.38.49 2.65.9 1.72.58 2.67 1 3.67 1.65 1.88 1.22 5.88 2.61 7.51 2.61.92 0 2.28.61 8.5 3.82a296.84 296.84 0 0 1 7.97 4.23c.65.35 1.5.85 1.86 1.1.37.24 1.18.7 1.8 1.01 1.34.67 1.58.9 1.3 1.24-.16.2-.12.28.19.45 1.64.88 2.2 1.2 3.3 1.82.69.38 1.7.95 2.25 1.24.55.3 1.46.83 2.02 1.2l1.75 1.1c1.52.94 3.6 2.49 4.71 3.5.63.57 1.84 1.56 2.69 2.2a136.4 136.4 0 0 1 20.17 19.03 174.32 174.32 0 0 1 7.77 9.7c1.22 1.64 4.27 6.03 4.8 6.93l1.26 2a77.1 77.1 0 0 1 2.97 4.8c.34.62.98 1.74 1.42 2.5.44.76.92 1.6 1.06 1.88l1.97 3.83a153.4 153.4 0 0 1 5.53 11.92c.63 1.38 1.3 3.04 1.46 3.65.1.33.39.86.66 1.17.26.31.7 1.21.98 2 .74 2.14 2.61 8.11 2.93 9.35l.51 1.91a98.58 98.58 0 0 1 1.76 7.25c.23.97.6 2.72.93 4.5.15.78.34 1.8.44 2.25.09.46.2 1.06.23 1.34l.23 1.66c1.13 7.44 2 16.88 1.68 18.17-.1.37-.21 2.24-.26 4.17-.1 3.87-.2 5.71-.4 8.08a65.04 65.04 0 0 1-.43 4.25 95.5 95.5 0 0 0-.34 2.75 111.45 111.45 0 0 1-1.43 9.45c-.17.84-.32 1.73-.32 1.97s-.22 1.31-.48 2.38c-.27 1.07-.61 2.66-.76 3.53-.33 1.86-1.91 8.14-2.43 9.59-.19.55-.64 2.03-1 3.29a31.24 31.24 0 0 1-.82 2.6c-.09.17-.36.98-.59 1.8-.23.8-.56 1.81-.74 2.22-.18.42-.47 1.2-.65 1.75l-.6 1.84c-.16.46-.43 1.13-.6 1.5-.18.36-.43 1-.56 1.41-.13.42-.58 1.58-1.01 2.59-1.05 2.49-1.61 4.08-1.45 4.08.08 0 .26-.28.4-.63.71-1.65 1.98-4.41 2.88-6.25.3-.63.6-1.35.66-1.62.06-.26.21-.57.35-.68.13-.1.23-.3.23-.42 0-.23 1.3-3.58 1.75-4.48.13-.28.37-.84.52-1.25l.64-1.75c.2-.55.45-1.17.56-1.36.1-.2.3-.78.44-1.28.13-.5.35-1.13.49-1.4s.4-1.06.58-1.76c.19-.7.45-1.44.6-1.66.42-.65 4.01-14.66 3.85-15.07-.05-.14.06-.84.24-1.56.18-.72.33-1.55.33-1.86 0-.3.09-.84.18-1.18.1-.35.2-.95.24-1.34.03-.38.24-2.46.47-4.62.22-2.15.42-4.89.43-6.08.02-1.2.11-2.46.2-2.8.1-.36.13-.75.09-.87-.05-.12-.02-.47.06-.78.4-1.54.63-13.42.32-16.63-.4-4.18-1.6-11.6-2.15-13.34-.1-.32-.3-1.4-.43-2.41-.13-1.01-.36-2.44-.5-3.17l-.41-2.33c-.1-.55-.24-1.22-.32-1.5a55.19 55.19 0 0 1-1.18-4.75c0-.17-.07-.36-.16-.42-.1-.06-.17-.32-.17-.58 0-.27-.06-.52-.14-.57a7.44 7.44 0 0 1-.35-1.8c-.12-1.05-.5-2.63-.94-4.05l-1.08-3.5a89.9 89.9 0 0 0-2.07-5.67 42.63 42.63 0 0 0-1.84-4.5 32.3 32.3 0 0 1-.72-1.66 55.3 55.3 0 0 0-1.35-2.92 69.05 69.05 0 0 0-2-3.88l-1.07-2c-.3-.57-.83-1.52-1.18-2.12l-1-1.75a41.37 41.37 0 0 0-1.82-3.03c-.42-.66-.77-1.25-.77-1.3 0-.07-.42-.7-.92-1.42s-.92-1.34-.92-1.39c0-.12-3.4-5.16-4.75-7.03-.6-.82-1.28-1.8-1.53-2.16a97.47 97.47 0 0 0-1.71-2.34c-1.72-2.29-2.72-3.86-2.6-4.07.3-.47.56-.23 2.38 2.17l1.9 2.49c1.2 1.56 2.94 4.01 4.7 6.62.75 1.13 1.24 1.71 1.45 1.71.3 0 1.16 1.04 1.73 2.08.24.44 1.08 1.73 2.67 4.11.27.4.52.64.55.53.09-.26-4.48-7.27-7.84-12.06a132.03 132.03 0 0 0-5.7-7.73 163.44 163.44 0 0 0-10.67-12.27c-3.3-3.5-11.39-10.74-11.67-10.45a15 15 0 0 0 1.88 1.8c5.83 5.14 13.2 12.85 15.73 16.48.22.32.76 1.03 1.2 1.58.78 1 1 1.6.55 1.6-.13 0-.56-.4-.95-.88-5.19-6.33-15.21-16.06-23.32-22.62-.68-.56-1.55-1.26-1.91-1.57a195.84 195.84 0 0 0-8.64-6.35c-.38-.28-1.45-.98-2.36-1.56l-2.34-1.52c-.7-.48-2.91-1.84-3-1.84-.03 0-.6-.33-1.26-.75a9.51 9.51 0 0 0-1.36-.75 5.3 5.3 0 0 1-1-.55c-.49-.3-1.59-.9-2.46-1.35a220.7 220.7 0 0 0-9.88-5c-.71-.29-.84-.76-.2-.76.23 0 .41-.08.41-.17 0-.1-.15-.17-.34-.17-.19 0-.49-.07-.66-.17a9.84 9.84 0 0 0-1.98-.33 16.26 16.26 0 0 1-5.1-1.5c-.3-.12-1.23-.43-1.89-.6-.42-.12-.14-.8.35-.87.8-.09.5-.29-.8-.5-.7-.12-1.76-.4-2.38-.63-.61-.23-1.71-.6-2.45-.82-.73-.22-1.85-.6-2.5-.84a42.17 42.17 0 0 0-4.43-1.5l-2.07-.55c-.31-.07-.58-.29-.72-.59-.2-.39-.3-.45-.7-.37-.32.06-.5.02-.56-.15-.13-.34-.47-.3-.81.1-.26.3-.33.3-.75.1a8.36 8.36 0 0 0-1.87-.42c-1.1-.15-1.47-.26-1.65-.52-.15-.22-.41-.34-.78-.34-.65 0-.9-.3-.5-.59.38-.28.07-.48-.82-.52A27.94 27.94 0 0 1 190 6.11c-.5-.14-1.7-.51-2.67-.83-2.46-.82-3-.9-3-.44 0 .54-6 .18-7.18-.43-.38-.2-.68-.22-1.52-.09-1.73.27-5.18.28-5.27.01-.1-.29.43-.66.95-.66.23 0 .38-.04.33-.09a57.3 57.3 0 0 0-4.24-.25c-2.28-.1-4.52-.22-4.97-.27-1.09-.13-3.26.24-3.26.55 0 .51-.88.65-3.34.52-2.74-.13-2.88-.2-2.18-1 .29-.33.52-.67.52-.77 0-.39 2.72-.7 6.75-.76l7.45-.11c7.04-.1 5.92-.28-2.54-.4-8.98-.12-10.02-.18-9.96-.56.05-.32-3.9-.45-5.37-.18Zm-35.96 18.44a19.57 19.57 0 0 0-3.86 5.21c-.42.65-1.2 2.93-1.66 4.88-.74 3.15.16 7.78 2.57 13.2a83.77 83.77 0 0 1 2.24 5.76c0 .1.12.43.25.72.14.29.37.94.51 1.44.52 1.85.88 3.1 1.05 3.58a107.49 107.49 0 0 1 2.58 10.25c.52 2.1.95 4.17.95 4.57 0 .23.07.6.16.84.19.5.97 5.11 1.17 6.93l.4 3.16c1.16 8.86 1.13 19.4-.09 27.75-.54 3.73-1.47 8.47-1.82 9.34-.07.18-.22.74-.34 1.25-.66 2.91-1.92 5.79-3.27 7.43-1.07 1.29-2.03 1.48-1.4.27.2-.36.64-5.76.88-10.7.35-7.31.17-20.57-.36-25.67-.09-.87-.24-2.48-.33-3.58-.1-1.1-.28-2.68-.42-3.5-.13-.83-.24-1.8-.24-2.17 0-.37-.16-1.45-.33-2.42-.18-.96-.5-2.65-.69-3.75l-.6-3.25-.48-2.33c-.12-.6-.56-2.4-.99-4-.42-1.6-.84-3.22-.92-3.58-.18-.85-.78-2.9-.97-3.34-.09-.18-.5-1.42-.94-2.75a48.54 48.54 0 0 0-1.42-3.96c0-.08-.15-.45-.34-.83a4.09 4.09 0 0 1-.33-.84c0-.09-.27-.75-.6-1.47a90.32 90.32 0 0 0-7-13.05c-.44-.68-.95-1.48-1.1-1.79-.17-.3-.4-.56-.52-.56-.18 0-2.54 4.46-3.27 6.17-.1.23-.25.53-.34.67-.08.13-.38.73-.64 1.33-1.64 3.64-2.17 4.75-2.57 5.36-.28.42-.28.46 0 .73.15.16.37.45.47.64.1.2.36.65.57 1.02.22.37.5.9.64 1.17.15.27.32.57.4.66.08.1.27.41.43.71.7 1.36 2.87 5.73 3.28 6.63 1.1 2.42 1.1 2.39 2.34 5.7l.67 1.71c.13.32.43 1.22.67 2 .24.78.5 1.57.59 1.75.29.63 1.68 6.04 2.25 8.75l.42 1.92c.09.37.23 1.23.3 1.92.1.68.24 1.5.33 1.83.09.32.24 1.55.35 2.74.1 1.19.26 2.54.35 3 .6 3.04.58 24.97-.02 29.6-.08.68-.23 3.23-.33 5.66s-.25 5.1-.34 5.92c-.1.82-.2 3.4-.26 5.75-.17 8.62-.43 9.37-4.56 13.52a87.97 87.97 0 0 1-6.97 6.3c-1.55 1.3-2.24 2.01-1.97 2.01.24 0 1.1-.4 1.1-.51 0-.08.22-.26.49-.4.63-.33 4.56-3.3 5.14-3.88.25-.25 1.13-1.03 1.95-1.73.83-.7 2.1-1.8 2.83-2.46 1.6-1.42 2-1.5 2.14-.48.33 2.33.6 3.83.85 4.71.82 2.88.99 3.4 1.28 4.05.17.39.32.78.32.87 0 .43 2.25 4.72 3.34 6.37 1.6 2.41 5.1 6.3 6.82 7.6.33.24 1.11.85 1.75 1.36a45.08 45.08 0 0 0 6.92 4.34c2.92 1.44 5.07 2.34 6.4 2.68.35.08.78.23.95.32.38.2 2.5.81 4.57 1.32l2.41.6c.5.13 1.56.3 2.34.39.78.09 1.63.24 1.9.34 2.18.83 19.94.84 22.37 0 .26-.08 1.34-.26 2.4-.39 2.66-.32 8.5-1.58 10.9-2.34a5.58 5.58 0 0 1 1.25-.26c.25 0 .52-.06.6-.14.09-.08.54-.24 1-.35a49.17 49.17 0 0 0 4.45-1.35c.16-.09.41-.16.57-.16.15 0 .7-.14 1.2-.31a83 83 0 0 1 2.2-.68 76.88 76.88 0 0 0 2.82-.87l1.09-.33c.27-.1 1.03-.3 1.68-.47.65-.16 1.43-.38 1.75-.48a172.3 172.3 0 0 1 7.98-2.19c.7-.16 1.48-.38 1.75-.47.28-.1 1.85-.49 3.5-.88l4.28-1c.7-.18 1.5-.32 1.76-.32s.56-.08.65-.17c.1-.1 1-.32 2-.5s2.11-.4 2.48-.5a67.3 67.3 0 0 1 4.58-.82l4.09-.64c2.79-.45 4.22-.64 9.16-1.21.65-.08 1.75-.14 2.46-.15.72 0 2.03-.14 2.92-.3 2.56-.44 18.4-.43 19.68.02 1.54.53 4.87.49 5.4-.08.22-.24.47-.47.56-.5.2-.09 2.16-2.31 3.65-4.15.63-.78 1.28-1.54 1.43-1.7.16-.15.86-1 1.57-1.87.7-.88 2.1-2.44 3.1-3.47 2.38-2.45 2.27-2.6-1.47-1.86-1.73.34-13.63.33-15.49 0-.72-.14-1.83-.3-2.47-.35a65.2 65.2 0 0 1-5.63-.92l-1.66-.34a19.4 19.4 0 0 1-1.45-.36c-.68-.2-3.36-.93-4.18-1.12-.32-.08-.92-.26-1.33-.4-.41-.15-1.69-.58-2.84-.96-1.14-.37-2.4-.82-2.79-1a3.72 3.72 0 0 0-.95-.32c-.13 0-.57-.14-.96-.31a273.11 273.11 0 0 1-7.96-3.44c-1.65-.8-6.46-3.24-7.12-3.6a115.5 115.5 0 0 1-6.33-3.64c-.53-.31-1.16-.7-1.39-.85-.56-.38-4.16-2.7-4.51-2.9-.31-.19-4.75-3.22-5.57-3.81a160.4 160.4 0 0 1-5-3.79l-5-3.98-4.17-3.33c-.18-.16-.7-.55-1.17-.87-.47-.32-1.19-.86-1.6-1.21-.43-.35-1.04-.8-1.37-1-.33-.19-1.37-.87-2.31-1.5a41.37 41.37 0 0 0-6.71-3.9 44.63 44.63 0 0 0-4.84-2.2c-.55-.2-1.33-.51-1.75-.68a60.8 60.8 0 0 0-5.64-1.65 16 16 0 0 1-1.58-.32c-5.55-1.29-13.29-.52-18.36 1.81l-1.42.66c-.23.1-.7.35-1.03.56l-1.5.85c-.49.26-1.07.64-1.3.84-.23.2-.87.7-1.42 1.09-1.24.9-5.58 5.28-6.54 6.6-.4.55-.82 1.14-.97 1.32-.22.3-.58.85-2.44 3.82-.26.4-.46.84-.46.99 0 .14-.07.3-.16.36-.15.08-1.5 2.8-1.5 3 0 .04-.23.54-.49 1.12a16.7 16.7 0 0 0-1.19 3c0 .12-.14.48-.3.8-.17.32-.37.87-.43 1.22-.07.36-.22.88-.34 1.17-.41.96-2.05 6.9-2.26 8.19-.08.46-.26 1.24-.4 1.75-.15.5-.26 1.1-.26 1.33 0 .23-.15 1.06-.33 1.84a58.45 58.45 0 0 0-1.08 6.16c-.22 1.97-.43 2.08-1.45.76-.76-.97-2.13-3.35-2.14-3.72 0-.12-.16-.53-.34-.9-.18-.39-.33-.82-.33-.96s-.15-.78-.33-1.43c-.51-1.86-.82-3.77-1.26-7.85-.55-5.17-.58-4.9.47-6.46a64.09 64.09 0 0 0 4.44-7.69c.4-.82.8-1.65.9-1.83a56.28 56.28 0 0 0 3.04-7.42c.13-.4.3-.9.4-1.08.08-.18.27-.75.4-1.25.28-1.04 1.16-4.17 1.53-5.42.13-.45.28-1.2.34-1.66.05-.46.2-1.1.32-1.43.12-.33.27-1.16.34-1.84.06-.68.26-1.79.43-2.47.17-.68.31-1.69.31-2.25s.15-2.14.33-3.51c.43-3.25.48-12.6.09-15.5-.14-1.01-.3-2.7-.34-3.75a30.3 30.3 0 0 0-.4-3.5c-.18-.87-.37-2.32-.43-3.22a9.87 9.87 0 0 0-.34-2.2 3.62 3.62 0 0 1-.24-1.16c0-.54-.15-1.37-.9-5-.14-.65-.34-1.62-.44-2.17a8.27 8.27 0 0 0-.36-1.34 6.29 6.29 0 0 1-.29-1.25c-.07-.5-.26-1.44-.42-2.08l-.46-1.83c-.1-.37-.23-.84-.32-1.05a2.31 2.31 0 0 1-.15-.68c0-.17-.14-.75-.3-1.29a95.1 95.1 0 0 1-.78-2.64c-.26-.92-.68-2.27-.95-3-.27-.74-.56-1.67-.64-2.06a8 8 0 0 0-.38-1.25c-.13-.3-.3-.83-.4-1.2-.1-.37-.4-1.42-.68-2.33a57.88 57.88 0 0 1-1.87-8.34c-.4-3.6-.52-5.62-.43-6.84.1-1.3-.02-1.74-.44-1.74-.08 0-.72.58-1.42 1.3ZM81 97.1c-.87.22-1.71.47-1.87.57-.16.1-.4.17-.55.17-.15 0-.54.14-.88.32l-2.19 1.1c-1.45.72-2.54 1.39-4.54 2.79A47.68 47.68 0 0 0 60.04 114c-.36.4-1.27 1.87-2.22 3.53-.48.85-.93 1.6-1 1.64-.06.04-.24.34-.39.66-.14.32-.79 1.6-1.43 2.84a19.39 19.39 0 0 0-1.17 2.5 2 2 0 0 1-.33.75c-.18.27-.33.6-.33.74 0 .13-.14.54-.31.91a13.71 13.71 0 0 0-1.03 3.06c0 .2-.06.39-.14.44-.08.05-.23.56-.34 1.13-.1.58-.28 1.28-.38 1.55-.4 1.07-.38 9.2.02 10.68 1.37 5.06 2.98 7.1 12.19 15.48a163.01 163.01 0 0 0 13.07 10.36c1.1.76 2.11 1.5 2.25 1.62.14.13.63.44 1.08.7.46.27.91.57 1 .67.24.28 3.22 2.24 3.4 2.24.08 0 .24.1.35.24.1.13.59.47 1.06.76l1.98 1.21c.6.4 1.85 1.16 2.75 1.7l1.8 1.14c.09.08.54.36 1 .63 1.13.67 1.41.84 2.03 1.28.29.2.59.37.65.37.07 0 .96.51 1.97 1.14 3 1.83 3.61 2.2 3.76 2.2.08 0 .25.1.37.21.12.12 1 .66 1.95 1.2l2.16 1.27c.46.28 1.48.87 2.2 1.27l1.16.72c.41.26 1.16.71 1.66 1 .5.27 1.26.72 1.67.99.41.27 1.01.62 1.33.77.33.16.89.5 1.25.74l2.09 1.38c1.62 1.06 3.7 2.5 4.47 3.11 6.46 5.05 10.92 9.78 13.51 14.34l.87 1.5c.16.27.23.4 1.15 2.41.83 1.8 1.72 4.62 2 6.32.08.54.25 1.25.37 1.58.34.96.28 8.92-.07 10.44a36.3 36.3 0 0 0-.45 2.37c-.1.67-.25 1.34-.33 1.5a55.83 55.83 0 0 1-2.51 7.29 80.99 80.99 0 0 1-2.68 5.25c-.07.05-.25.35-.4.67a8.8 8.8 0 0 1-.47.91l-.94 1.5c-2.72 4.35-6.68 9.84-8.83 12.25-4.86 5.44-8.14 8.63-12.36 12.05a66.8 66.8 0 0 0-1.92 1.59c-.18.17-.79.62-1.35 1a99.8 99.8 0 0 1-8.86 6.03c-.09 0-.29.15-.45.34-.17.18-.37.33-.45.33-.15 0-2.83 1.51-2.97 1.68-.04.05-.33.22-.62.38l-1.09.56-.54.3.43.05c.41.04 5.04-2.2 6.72-3.26.38-.24 1.1-.66 1.6-.93.5-.28 1.1-.64 1.31-.8.22-.18.47-.31.56-.31.09 0 .36-.16.6-.35.25-.18 1.2-.82 2.11-1.4a24.64 24.64 0 0 0 2.3-1.59c.32 0 7.63-5.56 8.2-6.23.1-.11 1-.94 2-1.84 2.81-2.53 4.6-4.3 6.8-6.76 1.1-1.24 2.1-2.32 2.2-2.42.1-.09.87-1 1.69-2l1.7-2.1c.58-.65 3.53-4.66 4.65-6.31.34-.5.67-.96.73-1 .06-.05.36-.5.66-1 .3-.5.6-.96.66-1 .06-.05.35-.52.64-1.04.3-.53.62-1 .7-1.06.1-.05.28-.33.42-.62.13-.3.54-1.02.9-1.62.36-.6.78-1.36.93-1.7.15-.35.33-.63.4-.63s.25-.28.4-.63c.14-.34.33-.73.4-.87a59.77 59.77 0 0 0 3.54-7.67c.88-2.1 2.66-7.67 2.68-8.35 0-.22.1-.7.24-1.06.13-.37.32-1.42.42-2.34.1-.91.3-2.3.42-3.06.31-1.8.3-5.13 0-6.8a59.2 59.2 0 0 1-.44-2.8 9.3 9.3 0 0 0-.42-1.99 2.43 2.43 0 0 1-.23-.85c0-.52-1.7-5.02-2.18-5.75a5.72 5.72 0 0 1-.34-.66c-.1-.23-.25-.53-.34-.67l-.35-.67c-.12-.23-.53-.9-.91-1.5a24.69 24.69 0 0 0-1.6-2.29 3.24 3.24 0 0 1-.45-.7c0-.05-.24-.36-.53-.68a62.34 62.34 0 0 0-10.63-10.06l-2.91-2.22c-.45-.35-1.13-.81-1.5-1.04-.37-.22-1.05-.7-1.51-1.04a4.6 4.6 0 0 0-.99-.63c-.08 0-.27-.12-.42-.26-.14-.14-.82-.62-1.5-1.06l-2-1.29-.98-.64a196.66 196.66 0 0 0-6.53-4.08c-.97-.6-1.21-.76-2.67-1.64-.5-.3-1.47-.92-2.16-1.38-.69-.45-1.46-.9-1.71-1-.25-.1-.46-.25-.46-.32s-.29-.28-.64-.47c-.36-.18-1.39-.81-2.3-1.4a176.85 176.85 0 0 0-3.04-1.92l-1.75-1.14c-.56-.37-1.13-.73-1.27-.8-.28-.12-5.32-3.34-5.58-3.56-.1-.08-.6-.38-1.1-.68a6.22 6.22 0 0 1-1.15-.78c-.12-.14-.28-.25-.37-.25-.1 0-.81-.43-1.6-.96a34.79 34.79 0 0 0-2.35-1.48l-2.68-1.75a208.72 208.72 0 0 1-5.25-3.48 40.7 40.7 0 0 1-3.25-2.33c-.41-.34-1.09-.84-1.5-1.12-.41-.28-.94-.69-1.18-.9-.23-.22-.98-.85-1.66-1.4-2.37-1.92-6.66-6.53-6.66-7.16 0-.04-.25-.47-.55-.96a12.1 12.1 0 0 1 0-12.93c2.85-4.47 9.94-9.3 15.46-10.55a20.7 20.7 0 0 1 8.5-.06c2.93.64 6.59 3.94 8.18 7.38.14.3.47.9.75 1.35.78 1.27.36 1.33-2.15.27a8.93 8.93 0 0 0-1.7-.59c-.17 0-.35-.07-.4-.15a3.12 3.12 0 0 0-.97-.44 6.43 6.43 0 0 1-1.04-.4c-.1-.08-.6-.26-1.12-.4-.52-.16-1-.35-1.05-.44-.05-.1-.27-.17-.48-.17a3.4 3.4 0 0 1-1.02-.26c-2.95-1.23-8.6-2.02-11.36-1.58-3.1.49-4.64 1.1-4.77 1.87-.05.3-.2.97-.34 1.47-.44 1.64-.8 3.21-1.2 5.25a193.54 193.54 0 0 1-.91 4.5c-.11.55-.34 1.5-.5 2.09-.6 2.07-.6 2.07 1.08 1.67 4.24-1.01 9.36-.84 14.42.5.78.2 1.5.42 1.58.5.1.06.6.24 1.12.4.52.14 1 .34 1.05.43.06.09.22.16.37.16.57 0 3.74 1.71 5.44 2.94 1.05.76 1.39.78 1.55.09.05-.25.21-.63.35-.85.15-.23.62-1.1 1.05-1.92a130 130 0 0 1 1.25-2.34c.25-.46 1.01-1.92 1.68-3.25.67-1.33 1.28-2.5 1.35-2.58.14-.17.22-.36 1.2-2.84 1.01-2.52 1.47-3.93 2.2-6.83.55-2.17.56-7.92 0-9.58-.19-.6-.35-1.18-.35-1.3-.02-1.44-3.3-5.72-5.92-7.7a25.28 25.28 0 0 0-3.28-2.17c-.1 0-.37-.14-.61-.3-2.14-1.47-6.61-1.97-10.03-1.11Zm75.92 20.25c3.98.65 6.5 1.57 10.87 3.95 2.2 1.2 2.88 2.04 1.1 1.37-.32-.13-.9-.13-1.97 0l-3 .36c-3.55.4-7.54 1.9-11.27 4.23-.85.53-4.22 3.02-4.67 3.45l-1.98 1.8-4.42 4.02c-5.24 4.83-9.38 7.53-13.79 9-2.27.75-2.35.6-1.37-2.44.13-.36.27-.93.33-1.25.41-2.23 2.76-8.44 4.28-11.3 2.64-5 6.47-9.2 9.89-10.86.27-.13.6-.31.72-.4.87-.64 4.3-1.68 6.61-2l2.33-.34c.96-.14 4.35.08 6.34.4Zm21.37 8.97 3.38 2.23c1.33.88 2.94 1.98 3.58 2.45.64.46 1.58 1.13 2.08 1.47.5.34 3.77 2.76 7.25 5.38 5.57 4.19 6.99 5.23 9.73 7.17 3.51 2.48 8.24 5.45 11.17 7.03 3.02 1.62 3.8 2 4.27 2.11.85.19.77.78-.12.91-.39.06-1.13.25-1.63.42-.5.18-1.48.48-2.17.69-1.36.4-2.1.63-4 1.22-.68.21-1.88.55-2.66.76-.78.2-1.64.45-1.92.54-.49.17-.91.29-4.33 1.21a279.15 279.15 0 0 1-11.5 2.78c-.37.1-1.53.3-2.59.48a139.4 139.4 0 0 1-11.7 1.76c-1.34.13-1.4 0-.73-1.57.79-1.85 1.1-2.67 1.1-2.88 0-.13.15-.5.33-.85.19-.34.34-.7.34-.79 0-.1.14-.49.3-.87a54.6 54.6 0 0 0 2.08-6.3c.34-1 .92-3.55 1.04-4.58.06-.46.2-1.36.33-2 .7-3.51.29-9.7-.8-12.25l-.63-1.5c-.57-1.34-1.6-3.1-2.52-4.27-1.2-1.53-1.13-1.71.32-.75Zm-12.26 12.6c3.22.68 5.5 2.1 7.7 4.8.66.82 2.1 3.38 2.1 3.75 0 .29.31.37-3.75-1.01a60.67 60.67 0 0 0-9.08-2.48c-3.5-.71-8.5-.16-11.19 1.22-1.71.89-1.81 1.03-2 2.68-.08.76-.25 1.98-.38 2.71-.13.74-.28 1.79-.35 2.34a137.4 137.4 0 0 1-1.51 8.68c-.14.71.03.74 2.18.38 7.63-1.28 17.82-.39 21.58 1.9 2.15 1.3 2.23 1.65.46 1.93-.75.11-1.75.28-2.2.37-.46.08-1.63.22-2.59.3-.96.1-2.69.3-3.83.45-3.14.44-15.66.44-18.17.01-.96-.16-2.24-.36-2.83-.43-3.3-.4-8.11-2.33-10.8-4.34-1.64-1.23-1.62-1.12-.31-1.8 3.83-1.98 7.93-5.28 16.52-13.29 4.79-4.46 6.3-5.63 8.97-6.88a15.96 15.96 0 0 1 9.48-1.3Zm64.01 107.76a3.67 3.67 0 0 0-1.95 2.52c-.32 2.59-.01 40.12.33 40.46l.66.7c1.24 1.3 2.58 1.27 4.06-.09 1.07-.98 1.03-.58 1.03-9.94v-8.53l.43-1.3c.24-.72.54-1.4.67-1.5.13-.11.23-.27.23-.35 0-.36 1.73-2.13 2.62-2.68 1.71-1.06 5.4-1.07 7.08-.02 2.35 1.47 2.8 3.92 2.8 15.18 0 8.51-.01 8.35.89 9.25.86.85 2.5 1.25 2.94.71.12-.13.3-.25.4-.25.82 0 2.08-2.4 1.76-3.36a2.42 2.42 0 0 1-.09-1.08c.06-.26.1-.55.08-.64-.14-.78-.12-12.74.02-13.09.13-.32.12-.57-.06-1-.13-.32-.29-1.33-.35-2.24a6.88 6.88 0 0 0-.35-2.04 1.5 1.5 0 0 1-.24-.63c0-.38-.8-2.3-1.04-2.5-.12-.1-.41-.48-.66-.86-.25-.38-.79-.94-1.2-1.24-.42-.3-.77-.6-.77-.66 0-.07-.35-.26-.79-.42a5.03 5.03 0 0 1-.95-.43c-.08-.08-.33-.14-.54-.14a2.8 2.8 0 0 1-1-.33c-.79-.42-4.74-.5-5.3-.1-.18.12-.52.27-.75.34-.73.21-2.54.95-2.73 1.1-.1.1-.64.5-1.19.92-.55.41-1.2 1-1.45 1.29l-.45.53v-7.72c-.01-8.72.06-8.24-1.36-9.36-.89-.7-1.84-.87-2.78-.5ZM144.17 249c-1.02.53-2.46 2.05-2.6 2.73-.06.33-.17.65-.25.7-.3.18-.19 36.83.1 37.07.14.11.25.3.25.4 0 .35 1.88 1.58 2.44 1.6.8.02 2.6-1.4 2.81-2.21.05-.2.07-7.03.05-15.17-.03-8.13 0-14.79.07-14.79s.13.12.13.27c0 .14.15.45.33.69.18.23.33.6.33.8 0 .21.31 1 .7 1.77.68 1.4 1.2 2.5 1.38 2.97.05.14.28.58.51.99.23.4.41.84.41.98 0 .13.15.51.33.84.19.34.41.8.5 1.03.1.23.24.53.32.66.3.54.68 1.44.78 1.87.06.25.21.54.34.65.13.1.24.27.24.38 0 .1.15.49.33.85.18.37.32.74.33.82 0 .09.3.76.65 1.5.62 1.3.78 1.67 1.44 3.23.16.4.47.95.69 1.24.21.3.39.7.39.9 0 .2.25.88.57 1.5a18.94 18.94 0 0 1 1.35 3.1c.06.26.17.46.25.46.07 0 .22.29.34.63.1.34.34.86.5 1.14.18.29.32.7.32.92 0 2.15 3.62 2.33 4.6.23a16.68 16.68 0 0 0 1.01-2.25 7.5 7.5 0 0 1 .68-1.47.8.8 0 0 0 .21-.47c0-.14.11-.46.25-.7.13-.24.63-1.34 1.1-2.44.47-1.1.91-2.08.98-2.17.07-.1.18-.4.24-.67.07-.27.24-.68.4-.91.27-.42 1.03-2.15 1.03-2.37a6 6 0 0 1 .5-.96c.27-.47.54-1.05.6-1.3.15-.6 1.54-3.5 1.74-3.63.09-.05.16-.35.16-.65 0-.3.1-.64.22-.74.13-.1.33-.48.45-.85s.32-.76.44-.86c.12-.1.22-.32.22-.49 0-.17.34-.96.75-1.76.42-.8.75-1.52.75-1.59 0-.07.33-.82.73-1.67.4-.85.77-1.66.82-1.8.05-.14.1 6.29.1 14.28.02 8.55.09 14.7.18 14.94.37.98 1.97 2.28 2.8 2.28.76 0 2.75-1.47 3.05-2.27.17-.45.22-35.57.05-36.8-.12-.87-1.25-2.3-2.63-3.3-1.7-1.23-4.46.06-5.68 2.65a27.3 27.3 0 0 1-.6 1.22c-.09.14-.2.36-.24.5-.05.14-.31.68-.59 1.2-.26.54-.49 1.05-.49 1.14 0 .22-1.62 3.8-2.5 5.54a9.55 9.55 0 0 0-.66 1.48c0 .1-.3.82-.67 1.59-.38.77-.72 1.62-.78 1.89-.05.27-.2.57-.32.68-.13.1-.23.27-.23.38 0 .18-.17.52-.78 1.6-.18.32-.38.79-.45 1.04-.1.45-.76 1.88-2.46 5.4-.45.94-.81 1.78-.81 1.9 0 .1-.2.53-.45.95-.24.41-.65 1.36-.9 2.1-.26.75-.47 1.22-.48 1.04 0-.28-.45-1.34-1.11-2.62a2.11 2.11 0 0 1-.23-.77c0-.18-.14-.5-.3-.73a3.08 3.08 0 0 1-.45-.81 3.22 3.22 0 0 0-.35-.75 1.3 1.3 0 0 1-.23-.58c0-.14-.16-.6-.36-1a88.3 88.3 0 0 1-.77-1.59c-.32-.6-1.04-2.25-1.04-2.4 0-.07-.18-.4-.4-.72a3.99 3.99 0 0 1-.52-1.15c-.06-.3-.21-.75-.33-.98-.6-1.16-1.42-3-1.42-3.2 0-.12-.22-.66-.5-1.21a6.34 6.34 0 0 1-.5-1.2c0-.1-.1-.27-.25-.39-.13-.11-.25-.31-.25-.44 0-.14-.23-.75-.52-1.36l-.84-1.86c-.18-.42-.62-1.34-.98-2.06a7.7 7.7 0 0 1-.66-1.58c0-.16-.15-.53-.33-.83-.18-.3-.33-.64-.33-.76s-.15-.4-.34-.6a1.34 1.34 0 0 1-.33-.69c0-1.47-3.73-2.97-5.33-2.15Zm59.12 11.17c-.56.44-.6 1.04-.08 1.42l.37.28-.41-.11a8.11 8.11 0 0 0-3.37-.08c-1.82.74-4.98 3.34-5.56 4.57a9.4 9.4 0 0 1-.57 1c-.54.8-.94 1.78-1.06 2.56-.07.4-.24.96-.4 1.25-.82 1.54-.88 7.4-.1 9.77.14.42.34 1.13.46 1.59 1.03 4 5.93 8.49 9.93 9.08a8 8 0 0 1 1.54.35c.37.2 4.91.2 5.03 0a3 3 0 0 1 1.12-.26 9.85 9.85 0 0 0 3.63-1.28c.21-.17.47-.31.56-.31.46 0 3.71-2.78 4.12-3.53.14-.25.4-.63.58-.85.31-.37.52-.68.91-1.41.4-.75 1.23-3.23 1.36-4.13.09-.54.23-1.26.32-1.58.24-.87.19-4.59-.09-5.83-.13-.6-.24-1.36-.24-1.7 0-.34-.08-.66-.17-.72-.08-.05-.23-.34-.31-.63-.4-1.33-1.1-3.06-1.34-3.3a4.55 4.55 0 0 1-.52-.67c-.35-.57-2.88-3.15-3.08-3.15-.1 0-.55-.29-1.02-.64a4.52 4.52 0 0 0-1.41-.75 4.55 4.55 0 0 1-1.05-.36 2.4 2.4 0 0 0-.92-.25c-.25 0-.63-.13-.86-.3-.7-.49-6.75-.52-7.37-.03Zm100.21 0c-.32.18-.67.33-.77.33-.93 0-4.13 2.14-4.81 3.22l-.34.53-.08-.88c-.12-1.27-1.76-2.87-2.96-2.87-.63 0-2.25 1.1-2.74 1.86-.41.64-.46 26.1-.04 26.93 1 2.02 3.2 2.4 4.84.85l.89-.84.05-9.03c.04-8.22.07-9.07.34-9.55.16-.3.29-.72.29-.94 0-.22.15-.6.33-.82.18-.24.33-.5.33-.6 0-.77 1.99-2.57 3.23-2.93 2.86-.83 5.47-.06 6.85 2.03 1.15 1.73 1.16 1.76 1.18 12.2.03 10.58-.05 10.02 1.54 11.05 1.27.83 2.47.71 3.6-.35.88-.83.85-.52.94-10.38.07-8.27.11-9.31.35-9.59.15-.17.33-.49.4-.71.27-.9.92-1.93 1.72-2.75 2.51-2.56 7.71-2.32 8.96.42 1.13 2.46 1.12 2.3 1.14 12.68l.01 9.28.51.64c1.4 1.75 3.46 1.72 4.82-.06l.59-.77v-9.14c0-8.46-.15-12.25-.49-12.73-.06-.1-.22-.5-.35-.92a3.2 3.2 0 0 0-.34-.83c-.06-.05-.32-.5-.57-1-.5-.97-2.79-3.33-3.24-3.33-.15 0-.5-.15-.8-.34a2.3 2.3 0 0 0-.93-.33c-.2 0-.61-.15-.91-.33-.8-.5-4.4-.5-5.37 0a3.2 3.2 0 0 1-.88.33c-1.21 0-4.34 2.37-5.94 4.5l-.31.41-.2-.7c-.1-.38-.34-.8-.53-.94-.2-.13-.49-.48-.66-.76a1.75 1.75 0 0 0-.6-.63c-.14-.05-.46-.3-.7-.54a6.12 6.12 0 0 0-2.6-1.34c-.2 0-.56-.15-.8-.33-.61-.49-4.07-.48-4.95 0Zm-99.24 1.81c.09.09.7.18 1.38.22.68.03 1.27.15 1.33.26.07.1.3.26.54.35.3.13.33.17.1.18-.16 0-.44-.06-.6-.16-.18-.09-.88-.25-1.57-.35-1.15-.17-2.29-.63-1.6-.64.15 0 .33.06.42.14Zm59.32.67c-2.36.57-2.88 4.4-.78 5.72l.62.38 7.16-.05c4.5-.03 7.29.01 7.5.12l1.09.49c1.22.54 2 1.79 2 3.23v.6l-7.38.07c-8.2.07-7.94.04-10 1.25-4.02 2.36-5.83 7.67-3.91 11.46l.59 1.16a9.15 9.15 0 0 0 4.68 4.15c.87.34 13.43.44 14.9.11l1.53-.33c.4-.1 1.04-.35 1.41-.59.37-.23.75-.42.85-.42.44 0 2.06-1.8 2.56-2.83l.52-1.09.05-7.42c.03-4.26-.02-7.81-.11-8.33-.18-1-.64-2.36-.85-2.5a5.1 5.1 0 0 1-.58-.8c-1.06-1.7-2.74-2.9-5.37-3.87-1.32-.49-14.82-.9-16.48-.5Zm-53.4 2.63c.95.1 3.32 2.01 3.32 2.68 0 .07.14.25.31.4 1.73 1.48 2.64 9.44 1.38 12.17-.2.43-.36.86-.36.96 0 1.9-2.73 4.27-5.88 5.1-3.81 1-8.66-1.12-10.07-4.4a15.5 15.5 0 0 1 0-12.4c.19-.43.4-.79.46-.79s.32-.31.58-.7a6.77 6.77 0 0 1 4.65-2.95c.73-.1 1.37-.24 1.42-.29.1-.1 2.27.02 4.19.22ZM281 279.79c0 .44-.08 1.54-.17 2.45-.35 3.57.21 3.3-7.07 3.4-6.37.07-6.59.04-7.6-1-.75-.77-.99-2.98-.4-3.73l.62-.91c.62-.95.85-.98 8.08-1H281v.8Z" fill="#9C248C"/></svg>